<svg width="64" height="64" viewBox="0 0 64 64" fill="none" xmlns="http://www.w3.org/2000/svg">
  <defs>
    <linearGradient id="ab1" x1="11" y1="8" x2="42" y2="58" gradientUnits="userSpaceOnUse"><stop stop-color="#45D9FF"/><stop offset=".55" stop-color="#2781FF"/><stop offset="1" stop-color="#2455F4"/></linearGradient>
    <linearGradient id="ab2" x1="30" y1="10" x2="58" y2="52" gradientUnits="userSpaceOnUse"><stop stop-color="#345CFF"/><stop offset=".48" stop-color="#5C55F6"/><stop offset="1" stop-color="#A56EF4"/></linearGradient>
    <linearGradient id="ab3" x1="23" y1="28" x2="54" y2="58" gradientUnits="userSpaceOnUse"><stop stop-color="#18C9F5"/><stop offset=".45" stop-color="#4867F4"/><stop offset="1" stop-color="#9A6BEF"/></linearGradient>
    <filter id="soft" x="-20%" y="-20%" width="140%" height="140%"><feDropShadow dx="0" dy="2" stdDeviation="2" flood-color="#2948B8" flood-opacity=".16"/></filter>
  </defs>
  <g filter="url(#soft)">
    <!-- A: one continuous folded ribbon -->
    <path d="M8.8 48.6 25.7 11.2c1.6-3.6 6.6-4.2 9.1-1.1l5.2 6.5-15.6 35.2c-1.5 3.3-5.5 4.6-8.6 2.8l-4.3-2.5a4.1 4.1 0 0 1-2.7-3.5Z" fill="url(#ab1)"/>
    <!-- shared A/B spine -->
    <path d="M28.3 13.3c1.9-4.1 7.5-4.7 10.2-1.1l12.2 16.2c1.5 2 1.6 4.7.3 6.8l-4.4 6.8-20-26.5 1.7-2.2Z" fill="url(#ab2)"/>
    <!-- B lower loop / A crossbar fold -->
    <path d="M22.6 38.4h22.1c6.3 0 11.4 4.2 11.4 9.4s-5.1 9.4-11.4 9.4H27.1c-4.5 0-8.2-3.7-8.2-8.2 0-3.1 1.4-6.1 3.7-8.2v-2.4Zm7.9 7.2c-1.8 0-3.3 1.4-3.3 3.2 0 1.8 1.5 3.2 3.3 3.2h13.7c2.2 0 4-1.4 4-3.2 0-1.8-1.8-3.2-4-3.2H30.5Z" fill="url(#ab3)" fill-rule="evenodd"/>
    <!-- B upper loop -->
    <path d="M39.1 17.9h5c6.6 0 11.9 4.3 11.9 9.7 0 4.6-3.9 8.4-9.3 9.4l-4.8-6.4h2.2c2.4 0 4.2-1.3 4.2-3 0-1.7-1.8-3-4.2-3h-.1l-4.9-6.7Z" fill="url(#ab2)"/>
    <path d="M16.8 39h12.6l-3.4 7.4H13.5L16.8 39Z" fill="#1E62F0" opacity=".95"/>
  </g>
</svg>
